HIERARCHY
ROOT joint_Root
{
	OFFSET 0.0 0.0 0.0
	CHANNELS 6 Xposition Yposition Zposition Zrotation Xrotation Yrotation 
	JOINT Hips
	{
		OFFSET 4.5925 91.4895 -427.239
		CHANNELS 6 Xposition Yposition Zposition Zrotation Xrotation Yrotation 
		JOINT Spine
		{
			OFFSET 15.7357 0.0 0.0
			CHANNELS 6 Xposition Yposition Zposition Zrotation Xrotation Yrotation 
			JOINT Chest
			{
				OFFSET 8.98455 -0.406207 0.0
				CHANNELS 6 Xposition Yposition Zposition Zrotation Xrotation Yrotation 
				JOINT Neck
				{
					OFFSET 16.3773 0.0 0.0
					CHANNELS 6 Xposition Yposition Zposition Zrotation Xrotation Yrotation 
					JOINT Head
					{
						OFFSET 6.45672 0.0 0.0
						CHANNELS 6 Xposition Yposition Zposition Zrotation Xrotation Yrotation 
						End Site
						{
							OFFSET 0.0 0.0 0.0
						}
					}
				}
				JOINT Shoulder_L
				{
					OFFSET 12.9942 -0.242716 4.98039
					CHANNELS 6 Xposition Yposition Zposition Zrotation Xrotation Yrotation 
					JOINT UpperArm_L
					{
						OFFSET 5.34809 0.0 0.0
						CHANNELS 6 Xposition Yposition Zposition Zrotation Xrotation Yrotation 
						JOINT LowerArm_L
						{
							OFFSET 24.3286 1.87007e-05 0.0
							CHANNELS 6 Xposition Yposition Zposition Zrotation Xrotation Yrotation 
							JOINT Hand_L
							{
								OFFSET 22.2916 0.0 0.0
								CHANNELS 6 Xposition Yposition Zposition Zrotation Xrotation Yrotation 
								End Site
								{
									OFFSET 0.0 0.0 0.0
								}
							}
						}
					}
				}
				JOINT Shoulder_R
				{
					OFFSET 12.9945 -0.242716 -4.98039
					CHANNELS 6 Xposition Yposition Zposition Zrotation Xrotation Yrotation 
					JOINT UpperArm_R
					{
						OFFSET -5.34813 0.0 0.0
						CHANNELS 6 Xposition Yposition Zposition Zrotation Xrotation Yrotation 
						JOINT LowerArm_R
						{
							OFFSET -24.3289 0.000322201 0.0
							CHANNELS 6 Xposition Yposition Zposition Zrotation Xrotation Yrotation 
							JOINT Hand_R
							{
								OFFSET -22.2915 -0.000108084 0.0
								CHANNELS 6 Xposition Yposition Zposition Zrotation Xrotation Yrotation 
								End Site
								{
									OFFSET 0.0 0.0 0.0
								}
							}
						}
					}
				}
			}
		}
		JOINT UpperLeg_L
		{
			OFFSET -2.19248 -6.46944 0.0
			CHANNELS 6 Xposition Yposition Zposition Zrotation Xrotation Yrotation 
			JOINT LowerLeg_L
			{
				OFFSET 39.0811 0.0 -1.23785e-05
				CHANNELS 6 Xposition Yposition Zposition Zrotation Xrotation Yrotation 
				JOINT Foot_L
				{
					OFFSET 40.9854 0.0 -1.26872e-05
					CHANNELS 6 Xposition Yposition Zposition Zrotation Xrotation Yrotation 
					JOINT Toes_L
					{
						OFFSET 11.7543 0.0 0.0
						CHANNELS 6 Xposition Yposition Zposition Zrotation Xrotation Yrotation 
						End Site
						{
							OFFSET 0.0 0.0 0.0
						}
					}
				}
			}
		}
		JOINT UpperLeg_R
		{
			OFFSET -2.19251 6.46944 0.0
			CHANNELS 6 Xposition Yposition Zposition Zrotation Xrotation Yrotation 
			JOINT LowerLeg_R
			{
				OFFSET -39.0811 -0.00228153 -0.0401928
				CHANNELS 6 Xposition Yposition Zposition Zrotation Xrotation Yrotation 
				JOINT Foot_R
				{
					OFFSET -40.9854 0.0 0.0
					CHANNELS 6 Xposition Yposition Zposition Zrotation Xrotation Yrotation 
					JOINT Toes_R
					{
						OFFSET -11.7543 0.0 0.0
						CHANNELS 6 Xposition Yposition Zposition Zrotation Xrotation Yrotation 
						End Site
						{
							OFFSET 0.0 0.0 0.0
						}
					}
				}
			}
		}
	}
}
MOTION
Frames:	9
Frame Time:	0.0333333
0.000000 0.000000 0.000000 0.000000 0.000000 -0.000000 -5.661140 91.523100 -0.913193 87.360600 3.921120 2.606020 15.735700 0.000005 -0.000001 80.145700 86.768500 -83.000600 8.984550 -0.406207 -0.000000 -1.413920 -0.877324 -5.718800 16.377300 -0.000001 -0.000001 2.999620 -5.886500 6.054370 6.456720 -0.000001 -0.000000 -4.285880 -2.726120 -0.065881 12.994200 -0.242716 4.980390 -91.382800 3.453270 -68.161900 5.348090 -0.000007 -0.000001 -63.312800 17.271300 -4.230860 24.328600 0.000019 0.000005 9.278290 19.963700 -25.570300 22.291600 -0.000001 0.000005 13.451800 5.142830 4.114500 12.994500 -0.242716 -4.980390 94.756700 -11.003400 -66.444400 -5.348130 -0.000001 -0.000004 -28.711100 -74.387500 -69.445000 -24.328900 0.000322 -0.000009 -4.246870 -5.538800 -37.565600 -22.291500 -0.000108 -0.000004 19.529800 5.534760 -8.006770 -2.192480 -6.469440 -0.000000 -170.800000 -9.115460 -7.646330 39.081100 -0.000007 -0.000012 -0.159799 0.311566 27.152900 40.985400 -0.000006 -0.000013 -2.654800 9.326030 -66.771500 11.754300 -0.000000 0.000003 -0.000040 -0.000466 -16.595700 -2.192510 6.469440 -0.000001 -177.158000 26.671200 175.729000 -39.081100 -0.002282 -0.040193 0.004846 -0.003381 24.383300 -40.985400 0.000008 0.000006 9.803500 11.995400 -69.911200 -11.754300 -0.000006 -0.000006 -0.003660 -0.047858 -18.519700
0.000000 0.000000 0.000000 0.000000 0.000000 -0.000000 -5.430140 91.561900 -1.026360 87.431200 3.607300 2.484820 15.735700 0.000005 -0.000001 80.550500 86.772100 -83.221900 8.984550 -0.406207 -0.000000 -1.412020 -0.845847 -5.351580 16.377300 -0.000001 -0.000001 2.721740 -5.633140 6.004200 6.456720 -0.000001 -0.000000 -4.054850 -2.541390 0.058115 12.994200 -0.242716 4.980390 -91.463400 3.653220 -68.152600 5.348090 -0.000007 -0.000001 -63.410700 18.408800 -4.709160 24.328600 0.000019 0.000005 8.967470 19.728800 -25.054400 22.291600 -0.000001 0.000005 13.595400 5.144730 4.069040 12.994500 -0.242716 -4.980390 94.372200 -10.212400 -66.672300 -5.348130 -0.000001 -0.000004 -26.103200 -73.177700 -65.303100 -24.328900 0.000322 -0.000009 -4.567130 -5.315780 -40.763100 -22.291500 -0.000108 -0.000004 20.159400 5.528730 -7.740350 -2.192480 -6.469440 -0.000000 -171.064000 -9.396850 -7.696790 39.081100 -0.000007 -0.000012 -0.154555 0.302849 27.037200 40.985400 -0.000006 -0.000013 -2.498540 9.221350 -66.705900 11.754300 -0.000000 0.000003 -0.000044 -0.000508 -16.597300 -2.192510 6.469440 -0.000001 -177.314000 26.410500 175.531000 -39.081100 -0.002282 -0.040193 0.002740 0.001266 24.346900 -40.985400 0.000008 0.000006 9.553450 12.153100 -69.713000 -11.754300 -0.000006 -0.000006 -0.003717 -0.048467 -18.544500
0.000000 0.000000 0.000000 0.000000 0.000000 -0.000000 -5.179150 91.585600 -1.137560 87.482200 3.208880 2.348500 15.735700 0.000005 -0.000001 80.277000 86.809700 -82.739900 8.984550 -0.406207 -0.000000 -1.491230 -0.878508 -4.935800 16.377300 -0.000001 -0.000001 2.462700 -5.407290 5.901510 6.456720 -0.000001 -0.000000 -3.709080 -2.283910 0.087449 12.994200 -0.242716 4.980390 -91.534900 3.854810 -68.269600 5.348090 -0.000007 -0.000001 -63.585700 19.811100 -5.046520 24.328600 0.000019 0.000005 8.578030 19.742700 -24.063100 22.291600 -0.000001 0.000005 13.633000 5.148550 3.978760 12.994500 -0.242716 -4.980390 93.952700 -9.414520 -67.100300 -5.348130 -0.000001 -0.000004 -24.684100 -71.195400 -61.169200 -24.328900 0.000322 -0.000009 -5.038640 -4.897060 -45.917100 -22.291500 -0.000108 -0.000004 21.223500 5.527810 -7.697210 -2.192480 -6.469440 -0.000000 -171.300000 -9.784170 -7.801070 39.081100 -0.000007 -0.000012 -0.152043 0.298175 27.017700 40.985400 -0.000006 -0.000013 -2.320310 9.185410 -66.690500 11.754300 -0.000000 0.000003 -0.000040 -0.000465 -16.595700 -2.192510 6.469440 -0.000001 -177.495000 26.194400 175.277000 -39.081100 -0.002282 -0.040193 -0.005989 0.020505 24.402000 -40.985400 0.000008 0.000006 9.264430 12.458100 -69.551100 -11.754300 -0.000006 -0.000006 -0.003875 -0.050136 -18.612500
0.000000 0.000000 0.000000 0.000000 0.000000 -0.000000 -4.886530 91.629000 -1.225960 87.572100 2.758100 2.202390 15.735700 0.000005 -0.000001 79.176100 86.854500 -81.428500 8.984550 -0.406207 -0.000000 -1.602530 -0.997100 -4.517480 16.377300 -0.000001 -0.000001 1.935690 -5.187970 5.745660 6.456720 -0.000001 -0.000000 -3.016220 -2.085120 0.064523 12.994200 -0.242716 4.980390 -91.563600 3.979800 -68.530000 5.348090 -0.000007 -0.000001 -64.043400 21.160100 -5.190290 24.328600 0.000019 0.000005 8.232300 20.038800 -22.890500 22.291600 -0.000001 0.000005 13.311800 5.139660 4.189500 12.994500 -0.242716 -4.980390 93.367900 -8.293030 -67.804800 -5.348130 -0.000001 -0.000004 -23.397900 -68.519900 -56.546000 -24.328900 0.000322 -0.000009 -5.925270 -4.571500 -52.470000 -22.291500 -0.000108 -0.000004 22.211000 5.536520 -8.084360 -2.192480 -6.469440 -0.000000 -171.616000 -10.242400 -7.816910 39.081100 -0.000007 -0.000012 -0.144582 0.285409 26.865900 40.985400 -0.000006 -0.000013 -2.113630 9.123890 -66.638300 11.754300 -0.000000 0.000003 -0.000040 -0.000462 -16.595500 -2.192510 6.469440 -0.000001 -177.739000 26.046500 175.080000 -39.081100 -0.002282 -0.040193 -0.009256 0.027771 24.352200 -40.985400 0.000008 0.000006 9.025930 12.870900 -69.366500 -11.754300 -0.000006 -0.000006 -0.003854 -0.049913 -18.603400
0.000000 0.000000 0.000000 0.000000 0.000000 -0.000000 -4.575310 91.654500 -1.269110 87.697000 2.175470 2.158120 15.735700 0.000005 -0.000001 76.941300 86.840400 -78.964100 8.984550 -0.406207 -0.000000 -1.629390 -1.261720 -4.062400 16.377300 -0.000001 -0.000001 1.158210 -4.730890 5.388780 6.456720 -0.000001 -0.000000 -2.276710 -1.786470 -0.055825 12.994200 -0.242716 4.980390 -91.601300 4.077640 -68.538400 5.348090 -0.000007 -0.000001 -64.578000 22.905800 -5.419080 24.328600 0.000019 0.000005 7.794000 20.410900 -21.429000 22.291600 -0.000001 0.000005 12.934100 5.135090 4.297300 12.994500 -0.242716 -4.980390 92.640600 -6.795640 -68.707800 -5.348130 -0.000001 -0.000004 -22.699700 -64.969100 -52.102500 -24.328900 0.000322 -0.000009 -6.552440 -3.809670 -59.951900 -22.291500 -0.000108 -0.000004 23.500300 5.541870 -8.328830 -2.192480 -6.469440 -0.000000 -171.938000 -10.827400 -7.693080 39.081100 -0.000007 -0.000012 -0.142066 0.281624 26.769000 40.985400 -0.000006 -0.000013 -1.902020 9.044880 -66.661500 11.754300 -0.000000 0.000003 -0.000036 -0.000425 -16.594100 -2.192510 6.469440 -0.000001 -178.122000 25.834600 174.977000 -39.081100 -0.002282 -0.040193 -0.019512 0.050276 24.417800 -40.985400 0.000008 0.000006 8.697560 13.371700 -69.239800 -11.754300 -0.000006 -0.000006 -0.003799 -0.049331 -18.579700
0.000000 0.000000 0.000000 0.000000 0.000000 -0.000000 -4.245650 91.669000 -1.296550 87.849200 1.580640 2.200310 15.735700 0.000005 -0.000001 72.646400 86.784400 -74.411600 8.984550 -0.406207 -0.000000 -1.652700 -1.772740 -3.555190 16.377300 -0.000001 -0.000001 0.538636 -4.018620 4.856410 6.456720 -0.000001 -0.000000 -1.828390 -1.148500 -0.316141 12.994200 -0.242716 4.980390 -91.659800 4.222320 -68.517200 5.348090 -0.000007 -0.000001 -65.274100 24.500000 -5.278140 24.328600 0.000019 0.000005 7.416330 20.730100 -20.190400 22.291600 -0.000001 0.000005 12.499800 5.131130 4.390860 12.994500 -0.242716 -4.980390 91.970600 -5.487740 -70.215000 -5.348130 -0.000001 -0.000004 -22.085600 -60.458000 -46.367700 -24.328900 0.000322 -0.000009 -7.015830 -2.792990 -68.393800 -22.291500 -0.000108 -0.000004 24.413600 5.542480 -8.356850 -2.192480 -6.469440 -0.000000 -172.301000 -11.309200 -7.496800 39.081100 -0.000007 -0.000012 -0.137900 0.273972 26.718000 40.985400 -0.000006 -0.000013 -1.689160 8.859590 -66.729600 11.754300 -0.000000 0.000003 -0.000034 -0.000407 -16.593400 -2.192510 6.469440 -0.000001 -178.628000 25.688900 174.962000 -39.081100 -0.002282 -0.040193 -0.035818 0.085753 24.528300 -40.985400 0.000008 0.000006 8.149970 14.009800 -69.085300 -11.754300 -0.000006 -0.000006 -0.003685 -0.048126 -18.530600
0.000000 0.000000 0.000000 0.000000 0.000000 -0.000000 -3.913710 91.687500 -1.311410 88.000100 0.680797 2.256890 15.735700 0.000005 -0.000001 71.504900 86.682700 -73.060600 8.984550 -0.406207 -0.000000 -1.499190 -1.978480 -3.136540 16.377300 -0.000001 -0.000001 -0.122982 -3.444340 4.304220 6.456720 -0.000001 -0.000000 -1.780860 -0.517236 -0.531995 12.994200 -0.242716 4.980390 -91.702300 4.375750 -68.718400 5.348090 -0.000007 -0.000001 -65.784500 26.030400 -5.496320 24.328600 0.000019 0.000005 6.931450 20.657700 -19.014000 22.291600 -0.000001 0.000005 12.366400 5.131900 4.373080 12.994500 -0.242716 -4.980390 91.278900 -3.886140 -71.771600 -5.348130 -0.000001 -0.000004 -21.636900 -54.838300 -39.860400 -24.328900 0.000322 -0.000009 -7.393340 -1.772050 -76.590900 -22.291500 -0.000108 -0.000004 25.321000 5.543850 -8.418000 -2.192480 -6.469440 -0.000000 -172.641000 -11.919700 -7.186080 39.081100 -0.000007 -0.000012 -0.137843 0.275231 26.603000 40.985400 -0.000006 -0.000013 -1.521940 8.534170 -66.807600 11.754300 -0.000000 0.000003 -0.000037 -0.000431 -16.594400 -2.192510 6.469440 -0.000001 -179.109000 25.241800 174.949000 -39.081100 -0.002282 -0.040193 -0.049656 0.115556 24.625900 -40.985400 0.000008 0.000006 7.753740 14.629600 -68.944500 -11.754300 -0.000006 -0.000006 -0.003601 -0.047220 -18.493700
0.000000 0.000000 0.000000 0.000000 0.000000 -0.000000 -3.611940 91.702700 -1.324050 88.163700 -0.216798 2.238920 15.735700 0.000005 -0.000001 70.835400 86.596300 -72.161800 8.984550 -0.406207 -0.000000 -1.359400 -2.128650 -2.677360 16.377300 -0.000001 -0.000001 -0.703559 -2.827260 3.647420 6.456720 -0.000001 -0.000000 -2.027260 -0.063622 -1.013480 12.994200 -0.242716 4.980390 -91.808300 4.667020 -68.793100 5.348090 -0.000007 -0.000001 -66.112200 27.483400 -5.861400 24.328600 0.000019 0.000005 6.650410 20.746500 -18.218800 22.291600 -0.000001 0.000005 12.183800 5.138740 4.211150 12.994500 -0.242716 -4.980390 90.593100 -1.957120 -73.145400 -5.348130 -0.000001 -0.000004 -21.954900 -47.697100 -33.924600 -24.328900 0.000322 -0.000009 -7.737890 -0.953733 -83.011800 -22.291500 -0.000108 -0.000004 25.975400 5.548370 -8.629470 -2.192480 -6.469440 -0.000000 -173.012000 -12.420600 -6.978470 39.081100 -0.000007 -0.000012 -0.134960 0.270823 26.488700 40.985400 -0.000006 -0.000013 -1.401650 8.082390 -66.870400 11.754300 -0.000000 0.000003 -0.000036 -0.000423 -16.594100 -2.192510 6.469440 -0.000001 -179.559000 24.916200 174.842000 -39.081100 -0.002282 -0.040193 -0.065234 0.148943 24.712800 -40.985400 0.000008 0.000006 7.244410 15.343700 -68.757600 -11.754300 -0.000006 -0.000006 -0.003606 -0.047278 -18.496100
0.000000 0.000000 0.000000 0.000000 0.000000 -0.000000 -3.373150 91.720200 -1.345650 88.310700 -0.915814 2.229750 15.735700 0.000005 -0.000001 70.293300 86.510900 -71.374200 8.984550 -0.406207 -0.000000 -1.217180 -2.267870 -2.185280 16.377300 -0.000001 -0.000001 -1.083170 -2.430470 3.096870 6.456720 -0.000001 -0.000000 -2.630590 0.397188 -2.253230 12.994200 -0.242716 4.980390 -91.923000 5.028500 -69.040600 5.348090 -0.000007 -0.000001 -66.435600 28.365400 -5.974470 24.328600 0.000019 0.000005 6.621920 20.699900 -18.181700 22.291600 -0.000001 0.000005 12.181200 5.145580 4.048660 12.994500 -0.242716 -4.980390 89.947900 0.188086 -74.414400 -5.348130 -0.000001 -0.000004 -22.807000 -39.089400 -28.236700 -24.328900 0.000322 -0.000009 -8.637230 -0.488650 -86.781900 -22.291500 -0.000108 -0.000004 26.039500 5.546190 -8.527580 -2.192480 -6.469440 -0.000000 -173.341000 -12.689600 -6.799970 39.081100 -0.000007 -0.000012 -0.134937 0.272459 26.347400 40.985400 -0.000006 -0.000013 -1.342460 7.574880 -66.891700 11.754300 -0.000000 0.000003 -0.000035 -0.000419 -16.593900 -2.192510 6.469440 -0.000001 -179.923000 24.663800 174.756000 -39.081100 -0.002282 -0.040193 -0.076576 0.173197 24.762100 -40.985400 0.000008 0.000006 6.915130 15.913200 -68.610600 -11.754300 -0.000006 -0.000006 -0.003492 -0.046051 -18.446100
